<?xml version="1.0" encoding="UTF-8"?>
<svg width="800px" height="600px" viewBox="0 0 800 600" version="1.1" xmlns="http://www.w3.org/2000/svg">
    <rect width="100%" height="100%" fill="#f3f4f6"/>
    <g transform="translate(350,250)">
        <path d="M40 15c-3.3 0-6-2.7-6-6s2.7-6 6-6 6 2.7 6 6-2.7 6-6 6zm12-24h-8l-2-2h-8l-2 2h-8c-2.2 0-4 1.8-4 4v24c0 2.2 1.8 4 4 4h28c2.2 0 4-1.8 4-4v-24c0-2.2-1.8-4-4-4z" fill="#9ca3af"/>
    </g>
    <text x="400" y="350" font-family="Arial" font-size="14" fill="#6b7280" text-anchor="middle">No image available</text>
</svg> 